HIERARCHY
ROOT Hips
{
	OFFSET 0.00 0.00 0.00
	CHANNELS 6 Xposition Yposition Zposition Xrotation Zrotation Yrotation
	JOINT Spine
	{
		OFFSET 0.00000 0.00000 4.33175
		CHANNELS 3 Xrotation Zrotation Yrotation
		JOINT Spine1
		{
			OFFSET 0.00000 -0.75220 4.26594
			CHANNELS 3 Xrotation Zrotation Yrotation
			JOINT Spine2
			{
				OFFSET 0.00000 -0.37754 4.31527
				CHANNELS 3 Xrotation Zrotation Yrotation
				JOINT Spine3
				{
					OFFSET 0.00000 -0.00000 4.33175
					CHANNELS 3 Xrotation Zrotation Yrotation
					JOINT Neck
					{
						OFFSET 0.00000 0.55694 5.56940
						CHANNELS 3 Xrotation Zrotation Yrotation
						JOINT Neck1
						{
							OFFSET 0.00000 0.16720 1.91116
							CHANNELS 3 Xrotation Zrotation Yrotation
							JOINT Head
							{
								OFFSET 0.00000 0.33314 1.88931
								CHANNELS 3 Xrotation Zrotation Yrotation
								End Site
								{
									OFFSET 0.00000 -0.00000 3.59213
								}
							}
						}
					}
					JOINT RightShoulder
					{
						OFFSET 0.00000 -0.00000 3.89858
						CHANNELS 3 Yrotation Zrotation Xrotation
						JOINT RightArm
						{
							OFFSET 7.06076 0.00000 0.00000
							CHANNELS 3 Xrotation Zrotation Yrotation
							JOINT RightForeArm
							{
								OFFSET 10.76871 0.00000 0.00000
								CHANNELS 3 Zrotation Yrotation Xrotation
								JOINT RightHand
								{
									OFFSET 8.97422 0.00000 0.00000
									CHANNELS 3 Xrotation Zrotation Yrotation
									JOINT RightHandMiddle1
									{
										OFFSET 3.51439 0.00000 0.00000
										CHANNELS 3 Xrotation Zrotation Yrotation
										JOINT RightHandMiddle2
										{
											OFFSET 1.87243 0.00000 0.00000
											CHANNELS 3 Xrotation Yrotation Zrotation
											JOINT RightHandMiddle3
											{
												OFFSET 1.22285 0.00000 0.00000
												CHANNELS 3 Xrotation Yrotation Zrotation
												End Site
												{
													OFFSET 0.72568 0.00000 0.00000
												}
											}
										}
									}
									JOINT RightHandRing
									{
										OFFSET 0.09894 -0.32322 -0.09894
										CHANNELS 3 Zrotation Xrotation Yrotation
										JOINT RightHandRing1
										{
											OFFSET 3.10377 -0.28010 0.00000
											CHANNELS 3 Xrotation Zrotation Yrotation
											JOINT RightHandRing2
											{
												OFFSET 1.73103 -0.15622 0.00000
												CHANNELS 3 Xrotation Yrotation Zrotation
												JOINT RightHandRing3
												{
													OFFSET 1.18113 -0.10659 0.00000
													CHANNELS 3 Xrotation Yrotation Zrotation
													End Site
													{
														OFFSET 0.71859 -0.06485 0.00000
													}
												}
											}
										}
										JOINT RightHandPinky
										{
											OFFSET 0.06949 -0.33080 -0.09894
											CHANNELS 3 Zrotation Xrotation Yrotation
											JOINT RightHandPinky1
											{
												OFFSET 2.54331 -0.56873 0.00000
												CHANNELS 3 Xrotation Zrotation Yrotation
												JOINT RightHandPinky2
												{
													OFFSET 1.39252 -0.31139 0.00000
													CHANNELS 3 Xrotation Yrotation Zrotation
													JOINT RightHandPinky3
													{
														OFFSET 0.90593 -0.20258 0.00000
														CHANNELS 3 Xrotation Yrotation Zrotation
														End Site
														{
															OFFSET 0.64958 -0.14526 0.00000
														}
													}
												}
											}
										}
									}
									JOINT RightHandIndex
									{
										OFFSET 0.09894 0.32322 -0.09894
										CHANNELS 3 Zrotation Xrotation Yrotation
										JOINT RightHandIndex1
										{
											OFFSET 3.41281 0.30799 0.00000
											CHANNELS 3 Xrotation Zrotation Yrotation
											JOINT RightHandIndex2
											{
												OFFSET 1.82020 0.16426 0.00000
												CHANNELS 3 Xrotation Yrotation Zrotation
												JOINT RightHandIndex3
												{
													OFFSET 1.08855 0.09823 0.00000
													CHANNELS 3 Xrotation Yrotation Zrotation
													End Site
													{
														OFFSET 0.65712 0.05930 0.00000
													}
												}
											}
										}
										JOINT RightHandThumb1
										{
											OFFSET 0.06949 0.33080 -0.29681
											CHANNELS 3 Zrotation Xrotation Yrotation
											JOINT RightHandThumb2
											{
												OFFSET 2.14475 0.78727 0.00000
												CHANNELS 3 Xrotation Zrotation Yrotation
												JOINT RightHandThumb3
												{
													OFFSET 1.40409 0.51540 0.00000
													CHANNELS 3 Xrotation Yrotation Zrotation
													End Site
													{
														OFFSET 0.84841 0.31143 0.00000
													}
												}
											}
										}
									}
								}
							}
						}
					}
					JOINT LeftShoulder
					{
						OFFSET 0.00000 -0.00000 3.89858
						CHANNELS 3 Yrotation Zrotation Xrotation
						JOINT LeftArm
						{
							OFFSET -7.06076 0.00000 0.00000
							CHANNELS 3 Xrotation Zrotation Yrotation
							JOINT LeftForeArm
							{
								OFFSET -10.76871 0.00000 0.00000
								CHANNELS 3 Zrotation Yrotation Xrotation
								JOINT LeftHand
								{
									OFFSET -8.97422 0.00000 0.00000
									CHANNELS 3 Xrotation Zrotation Yrotation
									JOINT LeftHandMiddle1
									{
										OFFSET -3.58402 0.00000 0.00000
										CHANNELS 3 Xrotation Zrotation Yrotation
										JOINT LeftHandMiddle2
										{
											OFFSET -1.90609 0.00000 0.00000
											CHANNELS 3 Xrotation Yrotation Zrotation
											JOINT LeftHandMiddle3
											{
												OFFSET -1.23295 0.00000 0.00000
												CHANNELS 3 Xrotation Yrotation Zrotation
												End Site
												{
													OFFSET -0.75251 0.00000 0.00000
												}
											}
										}
									}
									JOINT LeftHandRing
									{
										OFFSET -0.09894 -0.23768 -0.09894
										CHANNELS 3 Zrotation Xrotation Yrotation
										JOINT LeftHandRing1
										{
											OFFSET -3.17684 -0.28669 0.00000
											CHANNELS 3 Xrotation Zrotation Yrotation
											JOINT LeftHandRing2
											{
												OFFSET -1.76756 -0.15951 0.00000
												CHANNELS 3 Xrotation Yrotation Zrotation
												JOINT LeftHandRing3
												{
													OFFSET -1.18328 -0.10678 0.00000
													CHANNELS 3 Xrotation Yrotation Zrotation
													End Site
													{
														OFFSET -0.74516 -0.06725 0.00000
													}
												}
											}
										}
										JOINT LeftHandPinky
										{
											OFFSET -0.07717 -0.24561 -0.09894
											CHANNELS 3 Zrotation Xrotation Yrotation
											JOINT LeftHandPinky1
											{
												OFFSET -2.61248 -0.58420 0.00000
												CHANNELS 3 Xrotation Zrotation Yrotation
												JOINT LeftHandPinky2
												{
													OFFSET -1.40601 -0.31441 0.00000
													CHANNELS 3 Xrotation Yrotation Zrotation
													JOINT LeftHandPinky3
													{
														OFFSET -0.92898 -0.20774 0.00000
														CHANNELS 3 Xrotation Yrotation Zrotation
														End Site
														{
															OFFSET -0.67360 -0.15063 0.00000
														}
													}
												}
											}
										}
									}
									JOINT LeftHandIndex
									{
										OFFSET -0.09894 0.23768 -0.09894
										CHANNELS 3 Zrotation Xrotation Yrotation
										JOINT LeftHandIndex1
										{
											OFFSET -3.51151 0.31689 0.00000
											CHANNELS 3 Xrotation Zrotation Yrotation
											JOINT LeftHandIndex2
											{
												OFFSET -1.84639 0.16663 0.00000
												CHANNELS 3 Xrotation Yrotation Zrotation
												JOINT LeftHandIndex3
												{
													OFFSET -1.11115 0.10027 0.00000
													CHANNELS 3 Xrotation Yrotation Zrotation
													End Site
													{
														OFFSET -0.68141 0.06149 0.00000
													}
												}
											}
										}
										JOINT LeftHandThumb1
										{
											OFFSET -0.07717 0.24561 -0.29681
											CHANNELS 3 Zrotation Xrotation Yrotation
											JOINT LeftHandThumb2
											{
												OFFSET -2.26387 0.83100 0.00000
												CHANNELS 3 Xrotation Zrotation Yrotation
												JOINT LeftHandThumb3
												{
													OFFSET -1.41489 0.51936 0.00000
													CHANNELS 3 Xrotation Yrotation Zrotation
													End Site
													{
														OFFSET -0.87978 0.32294 0.00000
													}
												}
											}
										}
									}
								}
							}
						}
					}
				}
			}
		}
	}
	JOINT RightUpLeg
	{
		OFFSET 4.30987 0.00000 0.00000
		CHANNELS 3 Xrotation Zrotation Yrotation
		JOINT RightLeg
		{
			OFFSET 0.00000 0.00000 -14.67553
			CHANNELS 3 Xrotation Yrotation Zrotation
			JOINT RightFoot
			{
				OFFSET 0.00000 0.00000 -16.92095
				CHANNELS 3 Xrotation Zrotation Yrotation
				JOINT RightToeBase
				{
					OFFSET 0.00000 5.09058 -1.29984
					CHANNELS 3 Xrotation Yrotation Zrotation
					End Site
					{
						OFFSET 0.00000 3.08946 0.00000
					}
				}
			}
		}
	}
	JOINT LeftUpLeg
	{
		OFFSET -4.30987 0.00000 0.00000
		CHANNELS 3 Xrotation Zrotation Yrotation
		JOINT LeftLeg
		{
			OFFSET 0.00000 0.00000 -14.67553
			CHANNELS 3 Xrotation Yrotation Zrotation
			JOINT LeftFoot
			{
				OFFSET 0.00000 0.00000 -16.92095
				CHANNELS 3 Xrotation Zrotation Yrotation
				JOINT LeftToeBase
				{
					OFFSET 0.00000 5.09058 -1.29984
					CHANNELS 3 Xrotation Yrotation Zrotation
					End Site
					{
						OFFSET 0.00000 3.17667 0.00000
					}
				}
			}
		}
	}
}
MOTION
Frames: 5
Frame Time: 0.008333
 5.9638 -45.5760 33.9221 171.5887 1.9369 178.1993 -2.6331 0.3201 0.4532 -2.6332 0.2793 0.4794 -6.1200 0.2308 0.1064 -6.1200 0.2308 0.1064 2.1991 1.9203 -1.6341 4.5457 1.9191 -0.6582 7.7628 1.7293 0.1353 -1.6049 -6.8706 -0.1920 11.4207 -1.7653 5.9115 15.7007 0.0000 6.8595 1.9954 -7.7593 -14.4694 -1.8685 -4.8431 21.1267 0.0000 25.4927 -0.0000 -0.0000 13.6953 0.0000 -2.2136 10.8863 0.0413 -0.5162 -6.8354 17.0310 2.9239 29.4771 -0.7693 0.7437 8.1851 -0.0532 -1.5408 6.8595 -0.7193 -0.3008 -14.5909 8.4125 4.7007 20.1267 -0.8347 3.4958 15.2524 -0.4682 7.3964 5.6192 0.6268 -7.9074 -15.0094 21.8160 -3.2704 32.2995 0.9473 -1.0402 11.3738 0.1036 14.0085 -40.7911 15.3507 3.3946 -5.3975 -7.5173 -1.2391 3.5810 -2.1498 1.2048 7.6610 -0.1606 9.1832 2.7817 -11.6101 -21.1810 -0.0000 1.7654 2.5417 8.5679 16.5921 -2.0816 4.8535 -23.2479 0.0000 -30.5179 -0.0000 0.0000 -17.9710 0.0000 2.5754 10.6457 0.2784 -0.5112 6.3354 -23.3644 3.8869 -36.9124 1.2977 1.2024 -13.0903 0.1380 2.2112 5.3214 0.9619 0.3258 11.5049 -16.1153 6.7372 -27.6824 1.6617 4.0902 -17.6909 0.6368 -7.5584 5.3380 -0.7439 -8.2192 15.1976 -22.4179 -3.8951 -36.9702 -1.3026 -1.3107 -14.2233 -0.1635 -18.2055 -44.4739 -17.7051 1.5114 -0.2520 3.9508 -1.1341 -3.2604 1.9613 -14.7909 -9.2699 2.2593 -1.5367 -0.0000 0.0000 4.9973 5.1230 0.2475 7.9066 -0.0000 0.0000 -14.7388 10.3279 -1.2936 -0.3507 0.0000 -0.0000 5.4429 2.6843 0.9425 9.0599 0.0000 -0.0000
 5.9638 -45.5784 33.9220 171.5788 1.9384 178.1983 -2.6355 0.3208 0.4551 -2.6356 0.2799 0.4813 -6.1221 0.2311 0.1053 -6.1221 0.2311 0.1053 2.1948 1.9226 -1.6369 4.5480 1.9212 -0.6580 7.7742 1.7311 0.1387 -1.6078 -6.8681 -0.1923 11.4293 -1.7612 5.9064 15.6913 0.0000 6.8461 1.9912 -7.7318 -14.4892 -1.8712 -4.8585 21.0934 -0.0000 25.4600 0.0000 0.0000 13.6746 0.0000 -2.2192 10.8710 0.0425 -0.5132 -6.8264 17.0241 2.9217 29.4587 -0.7683 0.7429 8.1756 -0.0531 -1.5475 6.8633 -0.7161 -0.2974 -14.5631 8.4339 4.7042 20.1404 -0.8359 3.4992 15.2665 -0.4691 7.3952 5.6102 0.6302 -7.8883 -15.0190 21.7588 -3.2636 32.2455 0.9436 -1.0375 11.3457 0.1031 13.9905 -40.7705 15.3482 3.3995 -5.4288 -7.5243 -1.2444 3.5973 -2.1594 1.2090 7.6575 -0.1611 9.1871 2.7904 -11.6144 -21.1832 -0.0000 1.7606 2.5424 8.5615 16.6081 -2.0825 4.8596 -23.2309 -0.0000 -30.4968 -0.0000 0.0000 -17.9635 -0.0000 2.5767 10.6434 0.2795 -0.5116 6.3361 -23.3688 3.8860 -36.9057 1.2971 1.2027 -13.0933 0.1380 2.2146 5.3204 0.9628 0.3289 11.4963 -16.1418 6.7410 -27.6957 1.6635 4.0915 -17.6962 0.6372 -7.5573 5.3327 -0.7427 -8.2034 15.1957 -22.3803 -3.8891 -36.9280 -1.2990 -1.3093 -14.2083 -0.1632 -18.2047 -44.4532 -17.6891 1.5147 -0.2450 3.9581 -1.1346 -3.2618 1.9621 -14.8035 -9.2790 2.2582 -1.5412 0.0000 -0.0000 4.9953 5.1340 0.2555 7.9154 -0.0000 0.0000 -14.7494 10.3187 -1.2924 -0.3578 -0.0000 0.0000 5.4579 2.6932 0.9341 9.0416 0.0000 0.0000
 5.9644 -45.5806 33.9218 171.5730 1.9384 178.2022 -2.6368 0.3202 0.4538 -2.6369 0.2795 0.4800 -6.1218 0.2309 0.1069 -6.1218 0.2309 0.1069 2.1882 1.9235 -1.6400 4.5489 1.9222 -0.6593 7.7853 1.7317 0.1398 -1.6162 -6.8610 -0.1931 11.4408 -1.7661 5.9027 15.6887 0.0000 6.8323 1.9977 -7.7374 -14.5248 -1.8704 -4.8453 21.1372 0.0000 25.4719 -0.0000 0.0000 13.7011 -0.0000 -2.2251 10.8799 0.0431 -0.5148 -6.8253 17.0865 2.9253 29.4890 -0.7700 0.7450 8.1983 -0.0534 -1.5587 6.8591 -0.7200 -0.2976 -14.5462 8.5125 4.7136 20.1771 -0.8391 3.4993 15.2667 -0.4691 7.4023 5.6145 0.6290 -7.8988 -15.0104 21.7932 -3.2668 32.2711 0.9454 -1.0394 11.3658 0.1034 14.0252 -40.7987 15.3643 3.3753 -5.4238 -7.4767 -1.2473 3.6062 -2.1646 1.2126 7.6576 -0.1616 9.1768 2.7989 -11.6236 -21.1913 -0.0000 1.8113 2.5422 8.5640 16.6022 -2.0706 4.8480 -23.1617 0.0000 -30.3945 -0.0000 0.0000 -17.9382 -0.0000 2.5873 10.6824 0.2642 -0.5068 6.3299 -23.2831 3.8774 -36.8453 1.2920 1.1993 -13.0579 0.1373 2.2264 5.3146 0.9540 0.3348 11.4665 -16.0097 6.7365 -27.6799 1.6614 4.0731 -17.6218 0.6316 -7.5663 5.3607 -0.7419 -8.1880 15.2126 -22.3263 -3.8802 -36.8647 -1.2936 -1.3069 -14.1836 -0.1626 -18.2195 -44.4412 -17.7103 1.5078 -0.2256 3.9385 -1.1365 -3.2677 1.9656 -14.8105 -9.2851 2.2521 -1.5445 0.0000 0.0000 5.0060 5.1375 0.2642 7.9077 -0.0000 0.0000 -14.7553 10.3198 -1.2979 -0.3651 0.0000 -0.0000 5.4642 2.6942 0.9521 9.0344 0.0000 0.0000
 5.9639 -45.5817 33.9214 171.5753 1.9404 178.2012 -2.6349 0.3213 0.4543 -2.6350 0.2805 0.4806 -6.1223 0.2318 0.1065 -6.1223 0.2318 0.1065 2.1872 1.9251 -1.6302 4.5511 1.9248 -0.6586 7.7918 1.7352 0.1271 -1.6147 -6.8585 -0.1929 11.4662 -1.7753 5.8863 15.7118 0.0000 6.9080 1.9957 -7.7602 -14.4703 -1.8736 -4.8759 21.0498 -0.0000 25.4883 0.0000 -0.0000 13.6982 -0.0000 -2.2286 10.8413 0.0357 -0.5101 -6.8174 17.0131 2.9247 29.4840 -0.7697 0.7457 8.2059 -0.0535 -1.5749 6.8449 -0.7168 -0.2860 -14.4910 8.4195 4.7144 20.1805 -0.8394 3.5064 15.2965 -0.4710 7.3964 5.5881 0.6411 -7.8814 -15.0189 21.7415 -3.2698 32.2948 0.9470 -1.0408 11.3803 0.1037 14.0235 -40.8214 15.3894 3.3547 -5.4121 -7.4368 -1.2568 3.6353 -2.1816 1.2190 7.6587 -0.1625 9.1690 2.8016 -11.6287 -21.1961 -0.0000 1.8223 2.5414 8.5703 16.5857 -2.0693 4.8449 -23.1610 -0.0000 -30.3822 -0.0000 0.0000 -17.9174 -0.0000 2.5856 10.6839 0.2609 -0.5035 6.3240 -23.2508 3.8718 -36.8053 1.2886 1.1971 -13.0350 0.1368 2.2213 5.3205 0.9503 0.3320 11.4697 -15.9249 6.7231 -27.6333 1.6552 4.0643 -17.5859 0.6289 -7.5673 5.3735 -0.7433 -8.2050 15.2407 -22.3417 -3.8819 -36.8767 -1.2946 -1.3076 -14.1911 -0.1628 -18.2189 -44.4378 -17.7035 1.5174 -0.2368 3.9638 -1.1318 -3.2533 1.9572 -14.8074 -9.2790 2.2529 -1.5472 -0.0000 0.0000 5.0085 5.1313 0.2568 7.9095 -0.0000 -0.0000 -14.7506 10.3457 -1.2969 -0.3736 0.0000 -0.0000 5.4668 2.6772 0.9539 9.0515 -0.0000 -0.0000
 5.9634 -45.5830 33.9212 171.5756 1.9434 178.1975 -2.6340 0.3224 0.4563 -2.6341 0.2814 0.4826 -6.1237 0.2326 0.1087 -6.1237 0.2326 0.1087 2.2030 1.9270 -1.6336 4.5543 1.9263 -0.6598 7.7778 1.7364 0.1287 -1.6232 -6.8562 -0.1938 11.4724 -1.7811 5.8812 15.7180 0.0000 6.9017 1.9891 -7.7508 -14.4409 -1.8763 -4.8809 21.0581 0.0000 25.5312 0.0000 -0.0000 13.7183 0.0000 -2.2290 10.8250 0.0343 -0.5066 -6.8080 16.9948 2.9257 29.4922 -0.7702 0.7457 8.2069 -0.0535 -1.5782 6.8450 -0.7140 -0.2809 -14.4691 8.3675 4.7095 20.1610 -0.8377 3.5086 15.3057 -0.4716 7.3972 5.5961 0.6498 -7.9090 -15.0634 21.7693 -3.2821 32.3918 0.9535 -1.0432 11.4061 0.1042 14.0091 -40.8508 15.3931 3.3537 -5.4239 -7.4338 -1.2636 3.6562 -2.1939 1.2163 7.6635 -0.1622 9.1559 2.8006 -11.6323 -21.1936 -0.0000 1.8066 2.5426 8.5531 16.6241 -2.0704 4.8454 -23.1709 -0.0000 -30.3594 -0.0000 0.0000 -17.8847 -0.0000 2.5773 10.6930 0.2687 -0.5162 6.3534 -23.2512 3.8640 -36.7498 1.2839 1.1936 -12.9981 0.1360 2.2123 5.3175 0.9586 0.3111 11.5426 -15.9479 6.6947 -27.5344 1.6421 4.0570 -17.5565 0.6267 -7.5616 5.3588 -0.7355 -8.1969 15.1910 -22.3687 -3.8763 -36.8376 -1.2913 -1.3065 -14.1793 -0.1625 -18.2239 -44.4419 -17.6894 1.5123 -0.2574 3.9537 -1.1272 -3.2394 1.9489 -14.8061 -9.2682 2.2562 -1.5534 -0.0000 -0.0000 5.0147 5.1248 0.2514 7.9175 -0.0000 -0.0000 -14.7508 10.3401 -1.2931 -0.3760 -0.0000 0.0000 5.4665 2.6855 0.9491 9.0505 -0.0000 0.0000
